<mxfile host="app.diagrams.net" modified="2021-05-30T15:58:06.360Z" agent="5.0 (X11)" etag="CV-E0qsLo7qhbMNjHIB_" version="14.7.2" type="github">
  <diagram id="C5RBs43oDa-KdzZeNtuy" name="Page-1">
    <mxGraphModel dx="1030" dy="624" grid="1" gridSize="10" guides="1" tooltips="1" connect="1" arrows="1" fold="1" page="1" pageScale="1" pageWidth="827" pageHeight="1169" math="0" shadow="0">
      <root>
        <mxCell id="WIyWlLk6GJQsqaUBKTNV-0" />
        <mxCell id="WIyWlLk6GJQsqaUBKTNV-1" parent="WIyWlLk6GJQsqaUBKTNV-0" />
        <mxCell id="j75LQxGFAgnIAiS7uWVB-0" value="magicien" style="swimlane;childLayout=stackLayout;horizontal=1;startSize=30;horizontalStack=0;rounded=1;fontSize=14;fontStyle=0;strokeWidth=2;resizeParent=0;resizeLast=1;shadow=0;dashed=0;align=center;" vertex="1" parent="WIyWlLk6GJQsqaUBKTNV-1">
          <mxGeometry x="40" y="60" width="160" height="120" as="geometry" />
        </mxCell>
        <mxCell id="j75LQxGFAgnIAiS7uWVB-1" value="+id&#xa;+email&#xa;+pwd" style="align=left;strokeColor=none;fillColor=none;spacingLeft=4;fontSize=12;verticalAlign=top;resizable=0;rotatable=0;part=1;" vertex="1" parent="j75LQxGFAgnIAiS7uWVB-0">
          <mxGeometry y="30" width="160" height="90" as="geometry" />
        </mxCell>
        <mxCell id="j75LQxGFAgnIAiS7uWVB-8" value="categorie" style="swimlane;childLayout=stackLayout;horizontal=1;startSize=30;horizontalStack=0;rounded=1;fontSize=14;fontStyle=0;strokeWidth=2;resizeParent=0;resizeLast=1;shadow=0;dashed=0;align=center;" vertex="1" parent="WIyWlLk6GJQsqaUBKTNV-1">
          <mxGeometry x="630" y="180" width="160" height="120" as="geometry" />
        </mxCell>
        <mxCell id="j75LQxGFAgnIAiS7uWVB-9" value="+titre" style="align=left;strokeColor=none;fillColor=none;spacingLeft=4;fontSize=12;verticalAlign=top;resizable=0;rotatable=0;part=1;" vertex="1" parent="j75LQxGFAgnIAiS7uWVB-8">
          <mxGeometry y="30" width="160" height="90" as="geometry" />
        </mxCell>
        <mxCell id="j75LQxGFAgnIAiS7uWVB-13" style="edgeStyle=orthogonalEdgeStyle;rounded=0;orthogonalLoop=1;jettySize=auto;html=1;" edge="1" parent="WIyWlLk6GJQsqaUBKTNV-1" target="j75LQxGFAgnIAiS7uWVB-8">
          <mxGeometry relative="1" as="geometry">
            <mxPoint x="574" y="165" as="sourcePoint" />
            <Array as="points">
              <mxPoint x="574" y="200" />
            </Array>
          </mxGeometry>
        </mxCell>
        <mxCell id="j75LQxGFAgnIAiS7uWVB-17" style="edgeStyle=orthogonalEdgeStyle;rounded=0;orthogonalLoop=1;jettySize=auto;html=1;entryX=1;entryY=0.5;entryDx=0;entryDy=0;exitX=0;exitY=0.5;exitDx=0;exitDy=0;" edge="1" parent="WIyWlLk6GJQsqaUBKTNV-1" source="j75LQxGFAgnIAiS7uWVB-19" target="j75LQxGFAgnIAiS7uWVB-26">
          <mxGeometry relative="1" as="geometry">
            <mxPoint x="414" y="165" as="sourcePoint" />
            <mxPoint x="390" y="515" as="targetPoint" />
          </mxGeometry>
        </mxCell>
        <mxCell id="j75LQxGFAgnIAiS7uWVB-18" value="potion" style="swimlane;fontStyle=0;childLayout=stackLayout;horizontal=1;startSize=26;horizontalStack=0;resizeParent=1;resizeParentMax=0;resizeLast=0;collapsible=1;marginBottom=0;align=center;fontSize=14;labelBackgroundColor=none;" vertex="1" parent="WIyWlLk6GJQsqaUBKTNV-1">
          <mxGeometry x="414" y="100" width="160" height="146" as="geometry" />
        </mxCell>
        <mxCell id="j75LQxGFAgnIAiS7uWVB-19" value="id-potion" style="text;strokeColor=none;fillColor=none;spacingLeft=4;spacingRight=4;overflow=hidden;rotatable=0;points=[[0,0.5],[1,0.5]];portConstraint=eastwest;fontSize=12;" vertex="1" parent="j75LQxGFAgnIAiS7uWVB-18">
          <mxGeometry y="26" width="160" height="30" as="geometry" />
        </mxCell>
        <mxCell id="j75LQxGFAgnIAiS7uWVB-20" value="nom" style="text;fillColor=none;spacingLeft=4;spacingRight=4;overflow=hidden;rotatable=0;points=[[0,0.5],[1,0.5]];portConstraint=eastwest;fontSize=12;strokeColor=#000000;" vertex="1" parent="j75LQxGFAgnIAiS7uWVB-18">
          <mxGeometry y="56" width="160" height="30" as="geometry" />
        </mxCell>
        <mxCell id="j75LQxGFAgnIAiS7uWVB-21" value="categorie" style="text;strokeColor=none;fillColor=none;spacingLeft=4;spacingRight=4;overflow=hidden;rotatable=0;points=[[0,0.5],[1,0.5]];portConstraint=eastwest;fontSize=12;" vertex="1" parent="j75LQxGFAgnIAiS7uWVB-18">
          <mxGeometry y="86" width="160" height="30" as="geometry" />
        </mxCell>
        <mxCell id="j75LQxGFAgnIAiS7uWVB-23" value="prix" style="text;fillColor=none;spacingLeft=4;spacingRight=4;overflow=hidden;rotatable=0;points=[[0,0.5],[1,0.5]];portConstraint=eastwest;fontSize=12;strokeColor=#000000;" vertex="1" parent="j75LQxGFAgnIAiS7uWVB-18">
          <mxGeometry y="116" width="160" height="30" as="geometry" />
        </mxCell>
        <mxCell id="j75LQxGFAgnIAiS7uWVB-24" value="panier" style="swimlane;fontStyle=0;childLayout=stackLayout;horizontal=1;startSize=26;horizontalStack=0;resizeParent=1;resizeParentMax=0;resizeLast=0;collapsible=1;marginBottom=0;align=center;fontSize=14;labelBackgroundColor=none;strokeColor=#000000;" vertex="1" parent="WIyWlLk6GJQsqaUBKTNV-1">
          <mxGeometry x="110" y="420" width="160" height="116" as="geometry">
            <mxRectangle x="-50" y="395" width="50" height="26" as="alternateBounds" />
          </mxGeometry>
        </mxCell>
        <mxCell id="j75LQxGFAgnIAiS7uWVB-25" value="id panier" style="text;strokeColor=none;fillColor=none;spacingLeft=4;spacingRight=4;overflow=hidden;rotatable=0;points=[[0,0.5],[1,0.5]];portConstraint=eastwest;fontSize=12;" vertex="1" parent="j75LQxGFAgnIAiS7uWVB-24">
          <mxGeometry y="26" width="160" height="30" as="geometry" />
        </mxCell>
        <mxCell id="j75LQxGFAgnIAiS7uWVB-26" value="id potion" style="text;spacingLeft=4;spacingRight=4;overflow=hidden;rotatable=0;points=[[0,0.5],[1,0.5]];portConstraint=eastwest;fontSize=12;dashed=1;strokeColor=#000000;fillColor=#FFE6CC;" vertex="1" parent="j75LQxGFAgnIAiS7uWVB-24">
          <mxGeometry y="56" width="160" height="30" as="geometry" />
        </mxCell>
        <mxCell id="j75LQxGFAgnIAiS7uWVB-27" value="quantite" style="text;strokeColor=none;fillColor=none;spacingLeft=4;spacingRight=4;overflow=hidden;rotatable=0;points=[[0,0.5],[1,0.5]];portConstraint=eastwest;fontSize=12;" vertex="1" parent="j75LQxGFAgnIAiS7uWVB-24">
          <mxGeometry y="86" width="160" height="30" as="geometry" />
        </mxCell>
        <mxCell id="j75LQxGFAgnIAiS7uWVB-28" style="edgeStyle=orthogonalEdgeStyle;rounded=0;orthogonalLoop=1;jettySize=auto;html=1;entryX=0.55;entryY=0.017;entryDx=0;entryDy=0;entryPerimeter=0;" edge="1" parent="WIyWlLk6GJQsqaUBKTNV-1" source="j75LQxGFAgnIAiS7uWVB-1" target="j75LQxGFAgnIAiS7uWVB-24">
          <mxGeometry relative="1" as="geometry" />
        </mxCell>
      </root>
    </mxGraphModel>
  </diagram>
</mxfile>
